HIERARCHY
ROOT Hips
{
    OFFSET 0.000000 0.000000 0.000000
    CHANNELS 6 Xposition Yposition Zposition Zrotation Xrotation Yrotation
    JOINT Spine
    {
        OFFSET -0.000000 14.517291 0.000000
        CHANNELS 3 Zrotation Xrotation Yrotation
        JOINT Spine1
        {
            OFFSET -0.000000 37.558300 0.000000
            CHANNELS 3 Zrotation Xrotation Yrotation
            JOINT Neck
            {
                OFFSET -0.000000 37.404057 3.400369
                CHANNELS 3 Zrotation Xrotation Yrotation
                JOINT Head
                {
                    OFFSET -0.000000 24.785618 -3.540803
                    CHANNELS 3 Zrotation Xrotation Yrotation
                    End Site
                    {
                        OFFSET -0.000000 35.408028 0.000000
                    }
                }
            }
            JOINT LeftShoulder
            {
                OFFSET 6.992933 33.973492 -0.192664
                CHANNELS 3 Zrotation Xrotation Yrotation
                JOINT LeftArm
                {
                    OFFSET 21.527611 0.000000 0.000000
                    CHANNELS 3 Zrotation Xrotation Yrotation
                    JOINT LeftForeArm
                    {
                        OFFSET 56.353916 0.000000 0.000000
                        CHANNELS 3 Zrotation Xrotation Yrotation
                        JOINT LeftHand
                        {
                            OFFSET 47.774071 0.000000 0.000000
                            CHANNELS 3 Zrotation Xrotation Yrotation
                            End Site
                            {
                                OFFSET 26.556021 0.000000 0.000000
                            }
                        }
                    }
                }
            }
            JOINT RightShoulder
            {
                OFFSET -7.065357 33.973492 -0.192664
                CHANNELS 3 Zrotation Xrotation Yrotation
                JOINT RightArm
                {
                    OFFSET -21.527611 0.000000 0.000000
                    CHANNELS 3 Zrotation Xrotation Yrotation
                    JOINT RightForeArm
                    {
                        OFFSET -56.353916 0.000000 0.000000
                        CHANNELS 3 Zrotation Xrotation Yrotation
                        JOINT RightHand
                        {
                            OFFSET -47.774071 0.000000 0.000000
                            CHANNELS 3 Zrotation Xrotation Yrotation
                            End Site
                            {
                                OFFSET -26.556021 0.000000 0.000000
                            }
                        }
                    }
                }
            }
        }
    }
    JOINT LeftUpLeg
    {
        OFFSET 17.704014 0.000000 0.000000
        CHANNELS 3 Zrotation Xrotation Yrotation
        JOINT LeftLeg
        {
            OFFSET -0.000000 -81.181816 0.000000
            CHANNELS 3 Zrotation Xrotation Yrotation
            JOINT LeftFoot
            {
                OFFSET -0.000000 -62.821102 0.000000
                CHANNELS 3 Zrotation Xrotation Yrotation
                JOINT LeftToeBase
                {
                    OFFSET -0.000000 -11.507608 26.556021
                    CHANNELS 3 Zrotation Xrotation Yrotation
                    End Site
                    {
                        OFFSET -0.000000 0.000000 7.081605
                    }
                }
            }
        }
    }
    JOINT RightUpLeg
    {
        OFFSET -17.704014 0.000000 0.000000
        CHANNELS 3 Zrotation Xrotation Yrotation
        JOINT RightLeg
        {
            OFFSET -0.000000 -81.181816 0.000000
            CHANNELS 3 Zrotation Xrotation Yrotation
            JOINT RightFoot
            {
                OFFSET -0.000000 -62.821102 0.000000
                CHANNELS 3 Zrotation Xrotation Yrotation
                JOINT RightToeBase
                {
                    OFFSET -0.000000 -11.507608 26.556021
                    CHANNELS 3 Zrotation Xrotation Yrotation
                    End Site
                    {
                        OFFSET -0.000000 0.000000 7.081605
                    }
                }
            }
        }
    }
}
MOTION
Frames:    8
Frame Time:    0.008333
-6.772848    159.102341    -91.294952    -3.989846    -4.898997    45.746525    -1.764109    -3.155336    -5.352057    -7.617560    0.001455    -1.769934    9.315866    -0.020011    -14.917482    8.892140    2.545999    -15.884336    8.987870    7.773967    -19.587650    -35.339119    21.732307    -47.178368    -8.599182    -11.338336    -115.125145    4.204083    -24.302813    -0.898407    -14.458024    -6.821536    -12.857853    8.509689    -6.118327    22.505585    -16.938602    -34.296024    -4.092615    15.104259    -31.925102    25.513508    21.603661    4.246063    -4.446555    -8.309011    17.246159    -18.069563    -4.432308    -22.422253    42.610771    0.000000    0.000000    0.000000    -9.679391    -12.700503    -18.667498    3.995722    10.698032    -19.134239    6.751441    12.338926    -10.790348    0.000000    0.000000    0.000000    
-6.820623    159.096558    -91.297340    -3.987437    -4.929227    45.789665    -1.735968    -3.147410    -5.306453    -7.672930    0.015368    -1.754100    9.272381    -0.003048    -14.998744    8.982566    2.536000    -15.950122    8.987822    7.759737    -19.614258    -35.368744    21.679049    -47.190727    -8.607122    -11.299527    -115.147873    4.226746    -24.284657    -0.916935    -14.492748    -6.851945    -12.782496    8.445459    -6.316732    22.826000    -16.859079    -34.247520    -4.012199    15.110726    -31.859234    25.531836    21.648457    4.196089    -4.459869    -8.322093    17.332880    -18.117220    -4.422214    -22.437838    42.612068    0.000000    0.000000    0.000000    -9.664289    -12.694563    -18.707674    3.999985    10.732568    -19.162231    6.735034    12.337621    -10.756641    0.000000    0.000000    0.000000    
-6.870130    159.086014    -91.304832    -3.981104    -4.956069    45.829823    -1.719738    -3.133958    -5.255512    -7.726597    0.029458    -1.736395    9.245969    0.017588    -15.072089    9.076635    2.505034    -16.007814    9.025707    7.802968    -19.572590    -35.338531    21.662670    -47.347893    -8.595098    -11.354290    -115.132317    4.163419    -24.314611    -0.938493    -14.504206    -6.874776    -12.711946    8.352125    -6.600697    23.154507    -16.697174    -34.142021    -3.902356    15.017624    -31.754299    25.499125    21.684286    4.141200    -4.466527    -8.328918    17.434793    -18.158587    -4.428233    -22.485760    42.610916    0.000000    0.000000    0.000000    -9.676558    -12.691797    -18.678648    4.062821    10.781776    -19.158773    6.737833    12.291433    -10.837321    0.000000    0.000000    0.000000    
-6.917397    159.072327    -91.313744    -3.973298    -4.983315    45.864971    -1.701009    -3.119678    -5.207301    -7.772348    0.036228    -1.720077    9.163173    0.035969    -15.160508    9.223396    2.518026    -16.070385    9.024754    7.799651    -19.574669    -35.332932    21.651306    -47.397911    -8.609552    -11.358252    -115.160797    4.174984    -24.345922    -0.927278    -14.536280    -6.883572    -12.629593    8.303339    -7.067596    23.521347    -16.448952    -33.930435    -3.780072    15.038243    -31.506701    25.530653    21.720087    4.092309    -4.474659    -8.344037    17.527273    -18.186302    -4.405998    -22.514557    42.611969    0.000000    0.000000    0.000000    -9.674806    -12.696399    -18.730177    4.070512    10.839683    -19.178764    6.714411    12.269199    -10.780591    0.000000    0.000000    0.000000    
-6.963625    159.056900    -91.321541    -3.963223    -5.011942    45.894287    -1.680904    -3.107196    -5.163796    -7.809665    0.044348    -1.705267    9.085876    0.037877    -15.237431    9.323888    2.552283    -16.130247    8.988584    7.769541    -19.589252    -35.334881    21.674095    -47.386395    -8.583895    -11.413329    -115.196976    4.114009    -24.367769    -0.926143    -14.593567    -6.897629    -12.532967    8.258847    -7.396400    23.893684    -16.294456    -33.808578    -3.685452    14.978891    -31.370258    25.589144    21.755737    4.048138    -4.495644    -8.368721    17.619139    -18.191898    -4.385708    -22.541815    42.610592    0.000000    0.000000    0.000000    -9.674769    -12.703542    -18.772041    4.086699    10.907559    -19.150185    6.707960    12.228906    -10.801671    0.000000    0.000000    0.000000    
-7.009348    159.043182    -91.327286    -3.947154    -5.047100    45.928810    -1.665466    -3.082043    -5.106344    -7.843487    0.044126    -1.686381    8.992913    0.063508    -15.330969    9.463428    2.570893    -16.197512    8.973004    7.758846    -19.613873    -35.344669    21.663628    -47.403759    -8.574905    -11.418295    -115.219116    4.116491    -24.365568    -0.955130    -14.654411    -6.913043    -12.433428    8.180181    -7.720799    24.224503    -16.039354    -33.642841    -3.525390    14.906149    -31.184454    25.618025    21.791824    4.012568    -4.512827    -8.380242    17.707773    -18.215265    -4.389719    -22.576668    42.598011    0.000000    0.000000    0.000000    -9.673218    -12.695719    -18.812998    4.098755    10.962562    -19.160885    6.696791    12.213510    -10.778683    0.000000    0.000000    0.000000    
-7.056987    159.030060    -91.339241    -3.931549    -5.076687    45.965519    -1.639739    -3.062479    -5.055968    -7.887347    0.053156    -1.669295    8.873219    0.078847    -15.422514    9.626020    2.603962    -16.258186    8.939599    7.733483    -19.604958    -35.326626    21.667269    -47.446449    -8.570489    -11.415072    -115.233795    4.154427    -24.359352    -0.936199    -14.724062    -6.897175    -12.352869    8.098691    -7.730033    24.497452    -15.948856    -33.652924    -3.214465    14.819563    -31.188402    25.479885    21.819805    3.972441    -4.510796    -8.385081    17.793081    -18.238890    -4.381255    -22.596018    42.582588    0.000000    0.000000    0.000000    -9.679984    -12.704428    -18.847691    4.115898    11.042739    -19.120722    6.680123    12.180540    -10.812094    0.000000    0.000000    0.000000    
-7.102842    159.015472    -91.344711    -3.905979    -5.100680    45.986752    -1.633928    -3.047144    -4.987273    -7.938607    0.067100    -1.645570    8.784580    0.100424    -15.519662    9.780160    2.633852    -16.329720    8.934427    7.717110    -19.612608    -35.317081    21.672216    -47.497162    -8.554521    -11.420545    -115.247429    4.186531    -24.343630    -0.910259    -14.775516    -6.926064    -12.241692    8.053852    -8.102596    24.853399    -15.718316    -33.455788    -3.053416    14.745819    -30.972477    25.506947    21.838247    3.953607    -4.490329    -8.391767    17.857275    -18.258966    -4.394294    -22.637957    42.569588    0.000000    0.000000    0.000000    -9.688709    -12.711678    -18.879953    4.121839    11.118566    -19.109835    6.688246    12.139985    -10.822386    0.000000    0.000000    0.000000    
